<svg width="32" height="32" viewBox="0 0 32 32" fill="none" xmlns="http://www.w3.org/2000/svg">
  <circle cx="16" cy="16" r="16" fill="url(#paint0_linear_2182_24612)" />
  <path opacity="0.921484" fill-rule="evenodd" clip-rule="evenodd"
    d="M3.15332 12.3506L6.58864 10.2496H7.26639V13.0453V21.3774H4.63165V12.8928H3.15332V12.3506ZM22.8249 10.3936L22.7995 10.4106C25.9133 10.4106 28.4375 12.9348 28.4375 16.0486C28.4375 19.1624 25.9133 21.6866 22.7995 21.6866C21.5753 21.6897 20.3843 21.2893 19.4108 20.5471C20.0239 19.8638 20.4603 19.0406 20.6815 18.1496C21.6782 19.1749 23.2606 19.3526 24.4598 18.574C25.6591 17.7954 26.1406 16.2776 25.6096 14.95C25.0786 13.6224 23.6831 12.8554 22.2777 13.1186C20.8722 13.3818 19.8489 14.6019 19.8344 16.0316C19.8413 19.1443 17.3245 21.6737 14.2119 21.6823C11.0992 21.6909 8.56852 19.1753 8.55839 16.0627C8.54826 12.95 11.0625 10.418 14.1752 10.4063C15.3972 10.3996 16.5876 10.7939 17.5639 11.5289C16.954 12.2095 16.5179 13.0278 16.2931 13.9137C15.2755 12.9118 13.692 12.7679 12.5104 13.5699C11.3288 14.3718 10.8778 15.8965 11.433 17.2122C11.9882 18.5279 13.3952 19.2686 14.7941 18.9815C16.193 18.6945 17.1946 17.4597 17.1869 16.0316C17.1892 12.9188 19.7121 10.396 22.8249 10.3936Z"
    fill="white" />
  <defs>
    <linearGradient id="paint0_linear_2182_24612" x1="27.0625" y1="4.375" x2="3.625" y2="29"
      gradientUnits="userSpaceOnUse">
      <stop stop-color="#E8B24C" />
      <stop offset="1" stop-color="#A66427" />
    </linearGradient>
  </defs>
</svg>